<?xml version="1.0" standalone="no"?>
<!DOCTYPE svg PUBLIC "-//W3C//DTD SVG 20010904//EN"
 "http://www.w3.org/TR/2001/REC-SVG-20010904/DTD/svg10.dtd">
<svg version="1.0" xmlns="http://www.w3.org/2000/svg"
 width="520.000000pt" height="520.000000pt" viewBox="0 0 520.000000 520.000000"
 preserveAspectRatio="xMidYMid meet">
<metadata>
Created by potrace 1.11, written by Peter Selinger 2001-2013
</metadata>
<g transform="translate(0.000000,520.000000) scale(0.100000,-0.100000)"
fill="#000000" stroke="none">
<path d="M2492 5180 c-18 -11 -40 -37 -49 -57 -10 -21 -18 -39 -19 -41 -1 -1
-28 -5 -60 -7 -51 -4 -101 -11 -154 -20 -8 -1 -35 -6 -60 -10 -66 -11 -70 -12
-146 -30 -89 -22 -224 -63 -246 -75 -10 -6 -22 -10 -27 -10 -5 0 -22 -5 -38
-12 -15 -6 -30 -12 -33 -13 -61 -16 -328 -156 -443 -231 -171 -111 -249 -176
-417 -344 -122 -123 -180 -187 -180 -200 0 -5 -3 -10 -8 -12 -17 -7 -182 -240
-182 -257 0 -5 -6 -16 -13 -23 -16 -19 -33 -48 -83 -148 -41 -83 -51 -104 -94
-205 -18 -41 -65 -179 -76 -220 -30 -112 -64 -260 -69 -295 -3 -25 -8 -56 -10
-70 -20 -128 -27 -499 -12 -621 18 -145 32 -227 63 -350 58 -233 141 -437 272
-669 132 -233 381 -523 587 -685 28 -21 55 -44 60 -50 13 -15 235 -162 289
-192 22 -12 88 -46 146 -73 58 -28 113 -55 122 -61 10 -5 25 -9 33 -9 8 0 15
-5 15 -11 0 -5 5 -7 10 -4 6 4 17 2 24 -5 8 -6 27 -15 43 -20 15 -4 66 -20
113 -35 115 -36 220 -62 280 -70 14 -2 52 -8 85 -14 189 -34 566 -37 758 -5
27 4 56 9 120 19 17 3 48 10 67 15 19 5 46 11 60 14 84 16 313 95 430 149 30
14 62 28 70 31 8 3 33 17 55 29 22 13 65 37 96 54 67 37 186 114 249 162 64
48 143 113 155 126 18 21 49 33 105 40 30 4 71 9 90 12 46 8 72 11 88 12 24 2
62 49 62 79 0 15 -9 62 -19 102 -11 41 -17 77 -13 80 14 10 110 146 163 230
30 47 60 95 66 105 26 42 123 244 153 320 41 103 93 265 105 325 2 8 8 33 14
55 6 22 13 58 16 80 3 22 8 51 11 65 2 14 6 36 9 50 27 143 27 555 0 725 -28
171 -51 276 -91 400 -15 44 -27 85 -29 90 -3 15 -15 46 -36 92 -10 24 -19 45
-19 48 0 12 -106 225 -142 284 -21 34 -38 65 -38 67 0 5 -41 65 -50 74 -3 3
-9 12 -15 21 -86 139 -236 308 -432 486 -79 71 -214 170 -315 231 -43 26 -77
54 -78 63 0 9 -15 32 -32 52 -36 40 -97 60 -138 45 -18 -7 -48 2 -134 36 -170
69 -327 117 -459 140 -15 3 -35 7 -45 10 -9 2 -37 7 -62 10 -25 3 -56 8 -69
11 -13 2 -64 7 -114 11 -50 3 -98 8 -106 9 -9 2 -19 4 -23 4 -5 1 -8 9 -8 19
0 27 -44 72 -81 82 -50 15 -80 12 -117 -10z"/>
</g>
</svg>
